<svg width="226" height="42" viewBox="0 0 226 42" fill="none" xmlns="http://www.w3.org/2000/svg">
<path d="M38.4877 15.4173C37.4036 14.0838 35.9238 13.379 34.207 13.379C32.0828 13.379 30.7972 14.2636 30.093 15.0065C29.2206 15.9365 28.7337 17.1629 28.7306 18.438C28.7306 20.6752 30.2006 22.3 32.2271 22.3C33.2102 22.3 34.1808 21.8334 34.8226 21.0518C35.4992 20.2263 35.7466 19.1435 35.5176 18.0029C35.4533 17.6813 35.2639 17.3984 34.991 17.2164C34.7182 17.0344 34.3843 16.9682 34.0627 17.0323C33.9033 17.0639 33.7518 17.1266 33.6168 17.2169C33.4818 17.3072 33.3659 17.4233 33.2759 17.5585C33.1858 17.6936 33.1233 17.8453 33.092 18.0046C33.0607 18.164 33.0612 18.328 33.0934 18.4872C33.1754 18.9 33.1137 19.236 32.9103 19.4847C32.7016 19.7387 32.4115 19.8286 32.2271 19.8286C31.2519 19.8286 31.2014 18.671 31.2014 18.4387C31.2014 17.4786 31.8347 15.8524 34.2064 15.8524C35.1809 15.8524 35.954 16.2218 36.5695 16.9792C38.5809 19.4539 38.514 25.3011 37.5979 29.6861C36.5767 34.5785 35.1232 36.1732 34.0817 36.6483C33.5337 36.899 32.9109 36.9239 32.1792 36.7218C32.4043 36.0557 32.5434 35.2958 32.5927 34.4334C33.0435 26.5466 29.0896 22.4595 25.4422 20.3733C25.8779 19.5333 26.147 18.6296 26.1916 17.6807C27.9786 17.346 29.3298 15.7841 29.3298 13.9059C29.3298 11.9897 27.9228 10.4055 26.0846 10.1148C25.6253 6.97266 23.7661 4.78866 20.6332 3.54572C21.1667 3.26353 21.5138 3.12178 21.5138 3.12178C20.0012 2.58956 18.69 2.27981 17.5547 2.13872C18.1532 1.68919 18.5522 1.51856 18.5522 1.51856C9.32597 0.216563 4.77881 5.34713 4.49269 10.124C2.68603 10.4409 1.3125 12.0113 1.3125 13.9053C1.3125 15.7835 2.66372 17.3453 4.44872 17.68C4.61081 21.1286 7.59478 24.0292 11.7114 25.1219L7.959 37.17C7.0665 37.4883 6.17203 38.3388 5.59781 38.7588C5.12203 39.1053 2.625 39.1821 3.44466 40.6875H8.85872C9.43622 40.4985 9.80109 40.173 10.0026 39.7917L10.0032 39.7924L10.0314 39.7379C10.038 39.7265 10.0441 39.7149 10.0498 39.7031L16.7475 26.9561C17.0133 27.0506 17.306 27.1405 17.6354 27.2265C15.2053 28.1131 14.5405 33.1465 15.2677 37.9523C13.6356 38.5691 9.89494 38.9268 10.8413 40.6875H18.6408C19.0667 40.1093 19.0969 39.5213 18.877 39.0187C18.4295 35.9566 19.2189 34.4328 19.2189 34.4328C18.9899 37.5086 19.3856 40.6875 24.715 40.6875C27.4516 40.6875 29.5076 40.152 30.8352 38.8868C31.4724 39.1276 32.2481 39.3304 33.0907 39.3304C33.7372 39.3304 34.4229 39.2109 35.11 38.8959C37.4089 37.844 39.0154 34.9965 40.0181 30.1888C41.0071 25.4579 41.1981 18.7504 38.4877 15.4173ZM26.2021 11.5218C27.2304 11.8348 27.9838 12.7765 27.9838 13.9059C27.9838 15.0688 27.1838 16.0388 26.1063 16.319C25.9873 15.6447 25.7655 14.9927 25.4487 14.3857C25.914 13.4951 26.1791 12.5311 26.2021 11.5218ZM9.5025 39.2956C9.40669 39.6303 9.15338 39.8777 8.74716 40.0312H4.02544C4.25447 39.8652 4.83787 39.7044 5.08266 39.6375C5.46262 39.5325 5.76319 39.4498 5.98566 39.2877C6.13594 39.1775 6.30919 39.0383 6.49753 38.8861C7.08225 38.4116 7.96622 37.695 8.59819 37.695C8.74847 37.695 8.94797 37.7298 9.17634 38.0002C9.48675 38.369 9.618 38.89 9.5025 39.2956ZM4.53403 16.319C3.45516 16.0388 2.65584 15.0695 2.65584 13.9053C2.65584 12.7759 3.40856 11.8328 4.43887 11.5211C4.46477 12.5212 4.72267 13.5016 5.19225 14.385C4.87134 14.9979 4.65412 15.6463 4.53403 16.319ZM15.3188 24.9401C11.5402 24.9401 8.47678 22.6387 8.47678 19.7991C8.47678 18.8298 8.83969 17.9274 9.45984 17.1537C7.33294 15.8655 5.97188 13.8941 5.97188 11.6813C5.97188 3.77409 15.3202 8.81147 15.3202 8.81147C15.3202 8.81147 24.6691 3.77409 24.6691 11.6813C24.6691 13.8935 23.3067 15.8655 21.1778 17.1537C21.798 17.9268 22.1622 18.8304 22.1622 19.7991C22.1622 22.6387 19.0982 24.9401 15.3188 24.9401ZM18.2693 40.0312H11.3991C11.7141 39.6047 13.146 39.2306 14.0188 39.0036C14.6291 38.8447 15.2053 38.6938 15.645 38.512C15.927 38.3939 16.2298 38.3332 16.5355 38.3335C17.281 38.3335 17.9885 38.703 18.2549 39.2306C18.3862 39.4905 18.391 39.7574 18.2693 40.0312ZM18.4872 26.754C18.0025 26.6543 17.5237 26.5272 17.0533 26.3734L17.5553 25.4179C18.0818 25.3327 18.6029 25.217 19.1159 25.0714C23.2345 26.0761 24.4624 30.1488 24.8102 32.9208C23.9052 30.6114 22.052 27.5107 18.4872 26.754Z" fill="#FFEA00"/>
<path d="M16.3222 17.5632C16.5799 17.5632 16.7888 17.1334 16.7888 16.6031C16.7888 16.0729 16.5799 15.643 16.3222 15.643C16.0646 15.643 15.8557 16.0729 15.8557 16.6031C15.8557 17.1334 16.0646 17.5632 16.3222 17.5632Z" fill="#FFEA00"/>
<path d="M14.3174 17.5632C14.5751 17.5632 14.784 17.1334 14.784 16.6031C14.784 16.0729 14.5751 15.643 14.3174 15.643C14.0597 15.643 13.8508 16.0729 13.8508 16.6031C13.8508 17.1334 14.0597 17.5632 14.3174 17.5632Z" fill="#FFEA00"/>
<path d="M19.3751 15.435C20.2776 15.435 21.0092 14.4945 21.0092 13.3343C21.0092 12.1742 20.2776 11.2337 19.3751 11.2337C18.4727 11.2337 17.7411 12.1742 17.7411 13.3343C17.7411 14.4945 18.4727 15.435 19.3751 15.435Z" fill="#FFEA00"/>
<path d="M11.2678 15.4337C12.1706 15.4337 12.9025 14.4935 12.9025 13.3337C12.9025 12.1739 12.1706 11.2337 11.2678 11.2337C10.365 11.2337 9.63309 12.1739 9.63309 13.3337C9.63309 14.4935 10.365 15.4337 11.2678 15.4337Z" fill="#FFEA00"/>
<path d="M10.6851 20.0799C10.3957 20.7867 12.4267 22.2193 15.3208 22.2154C18.2136 22.2206 20.2453 20.7874 19.9559 20.0799C19.679 19.3476 10.962 19.3463 10.6851 20.0799Z" fill="#FFEA00"/>
<path d="M50 27.8871V14.0565C50 13.5671 50.1445 13.1808 50.4335 12.8975C50.7226 12.6142 51.1036 12.3952 51.5765 12.2407C52.4436 11.9316 53.4815 11.7127 54.6902 11.584C55.8988 11.4552 56.9893 11.3908 57.9614 11.3908C61.5086 11.3908 64.1887 12.1377 66.0017 13.6315C67.841 15.0996 68.7606 17.1085 68.7606 19.6582C68.7606 21.3066 68.3534 22.7489 67.5388 23.9851C66.7506 25.2214 65.6076 26.1872 64.1099 26.8826C62.6122 27.5523 60.8123 27.8871 58.7103 27.8871H50ZM53.2319 35.6909C52.0495 35.6909 51.2087 35.4849 50.7094 35.0728C50.2365 34.6607 50 33.9396 50 32.9094V25.2987H55.9908V35.3819C55.7543 35.4591 55.3733 35.5235 54.8478 35.575C54.3223 35.6523 53.7837 35.6909 53.2319 35.6909ZM55.9514 23.2511H58.3162C59.6562 23.2511 60.7072 22.9421 61.4692 22.3239C62.2575 21.7058 62.6516 20.8172 62.6516 19.6582C62.6516 18.4993 62.2837 17.6236 61.548 17.0312C60.8123 16.4388 59.7482 16.1426 58.3556 16.1426C57.8826 16.1426 57.4491 16.1555 57.0549 16.1813C56.6871 16.207 56.3192 16.2457 55.9514 16.2972V23.2511Z" fill="#FFEA00"/>
<path d="M74.377 28.8529L74.1405 24.9896L83.9149 23.4829C83.8624 22.7618 83.5471 22.0921 82.969 21.474C82.391 20.8559 81.537 20.5468 80.4072 20.5468C79.2248 20.5468 78.2395 20.946 77.4512 21.7444C76.6629 22.5171 76.2425 23.6246 76.19 25.0669L76.3871 27.7325C76.6235 29.1491 77.241 30.1664 78.2395 30.7845C79.2379 31.3769 80.4203 31.6731 81.7866 31.6731C82.8902 31.6731 83.9281 31.5186 84.9003 31.2095C85.8725 30.9004 86.6607 30.5785 87.2651 30.2437C87.6592 30.4755 87.9745 30.7974 88.211 31.2095C88.4737 31.6216 88.6051 32.0594 88.6051 32.523C88.6051 33.2957 88.2898 33.9396 87.6592 34.4547C87.0549 34.9698 86.2009 35.3561 85.0973 35.6137C84.02 35.8712 82.7851 36 81.3925 36C79.3693 36 77.5432 35.6265 75.9141 34.8796C74.3113 34.1327 73.0501 33.0124 72.1304 31.5186C71.2108 30.0248 70.751 28.1575 70.751 25.9168C70.751 24.2685 71.0137 22.839 71.5392 21.6285C72.091 20.418 72.8136 19.4264 73.707 18.6538C74.6266 17.8554 75.6513 17.263 76.7812 16.8767C77.9373 16.4903 79.1328 16.2972 80.3678 16.2972C82.1808 16.2972 83.7573 16.6578 85.0973 17.3789C86.4637 18.0743 87.5278 19.0272 88.2898 20.2377C89.0518 21.4482 89.4328 22.8519 89.4328 24.4487C89.4328 25.2472 89.2094 25.8524 88.7628 26.2645C88.3161 26.6766 87.6986 26.9341 86.9103 27.0371L74.377 28.8529Z" fill="#FFEA00"/>
<path d="M93.0585 25.2214H98.8522V29.3551C98.8522 30.0763 99.0887 30.6043 99.5616 30.9391C100.035 31.2739 100.705 31.4413 101.572 31.4413C101.966 31.4413 102.386 31.4027 102.833 31.3254C103.306 31.2224 103.7 31.1065 104.015 30.9777C104.226 31.2095 104.409 31.4928 104.567 31.8276C104.751 32.1625 104.843 32.5488 104.843 32.9866C104.843 33.8623 104.475 34.5835 103.739 35.1501C103.004 35.7167 101.769 36 100.035 36C97.8275 36 96.1064 35.5107 94.8715 34.5319C93.6628 33.5532 93.0585 31.9564 93.0585 29.7415V25.2214ZM96.7633 21.7058V17.3016H104.331C104.462 17.5077 104.593 17.8039 104.725 18.1902C104.856 18.5765 104.922 19.0015 104.922 19.4651C104.922 20.2377 104.738 20.8044 104.37 21.1649C104.028 21.5255 103.555 21.7058 102.951 21.7058H96.7633ZM98.8522 26.1872H93.0585V12.318C93.3212 12.2407 93.6891 12.1634 94.162 12.0862C94.635 11.9832 95.1342 11.9316 95.6597 11.9316C96.7896 11.9316 97.6041 12.1248 98.1033 12.5111C98.6026 12.8975 98.8522 13.6057 98.8522 14.636V26.1872Z" fill="#FFEA00"/>
<path d="M116.258 33.2957C118.018 33.2957 119.345 32.9094 120.239 32.1367C121.158 31.3383 121.618 30.321 121.618 29.0847C121.618 28.0287 121.263 27.153 120.554 26.4577C119.871 25.7623 118.78 25.2085 117.283 24.7964L113.854 23.792C112.75 23.4572 111.791 23.0322 110.977 22.5171C110.162 21.9762 109.531 21.3195 109.085 20.5468C108.664 19.7484 108.454 18.8212 108.454 17.7652C108.454 15.7821 109.19 14.2368 110.661 13.1293C112.133 11.996 114.09 11.4294 116.534 11.4294C117.953 11.4294 119.214 11.584 120.318 11.893C121.447 12.1763 122.328 12.5498 122.958 13.0134C123.615 13.477 123.944 13.9663 123.944 14.4814C123.944 14.8162 123.852 15.1253 123.668 15.4086C123.484 15.6662 123.247 15.8722 122.958 16.0267C122.301 15.5116 121.408 15.0609 120.278 14.6746C119.175 14.2883 117.966 14.0951 116.652 14.0951C115.128 14.0951 113.919 14.4299 113.026 15.0996C112.133 15.7434 111.686 16.632 111.686 17.7652C111.686 18.6667 112.001 19.4007 112.632 19.9673C113.289 20.5339 114.34 21.0233 115.785 21.4354L118.189 22.1308C120.265 22.6974 121.894 23.5215 123.076 24.6033C124.285 25.685 124.889 27.1788 124.889 29.0847C124.889 31.1194 124.127 32.7677 122.603 34.0297C121.106 35.2917 118.991 35.9227 116.258 35.9227C114.655 35.9227 113.249 35.7553 112.041 35.4205C110.858 35.0599 109.926 34.6221 109.242 34.107C108.586 33.5661 108.257 33.0381 108.257 32.523C108.257 32.0852 108.389 31.7246 108.651 31.4413C108.94 31.1322 109.269 30.9133 109.637 30.7845C110.241 31.3512 111.095 31.9178 112.198 32.4844C113.302 33.0253 114.655 33.2957 116.258 33.2957Z" fill="white"/>
<path d="M129.755 25.2214H132.908V30.5528C132.908 31.583 133.21 32.317 133.814 32.7548C134.418 33.1669 135.246 33.373 136.297 33.373C136.744 33.373 137.243 33.2957 137.795 33.1412C138.347 32.9866 138.806 32.8063 139.174 32.6003C139.332 32.7548 139.476 32.948 139.608 33.1798C139.739 33.4116 139.805 33.682 139.805 33.9911C139.805 34.5577 139.463 35.0213 138.78 35.3819C138.097 35.7424 137.151 35.9227 135.942 35.9227C134.103 35.9227 132.605 35.5235 131.449 34.7251C130.319 33.9267 129.755 32.6003 129.755 30.7459V25.2214ZM131.37 20.5082V17.9584H139.371C139.45 18.0614 139.529 18.2288 139.608 18.4606C139.687 18.6924 139.726 18.9371 139.726 19.1947C139.726 19.6067 139.621 19.9287 139.411 20.1605C139.201 20.3923 138.911 20.5082 138.544 20.5082H131.37ZM132.908 26.3804H129.755V12.3952C129.886 12.3437 130.083 12.2922 130.346 12.2407C130.635 12.1634 130.937 12.1248 131.252 12.1248C131.804 12.1248 132.211 12.2407 132.474 12.4725C132.763 12.6786 132.908 13.0263 132.908 13.5156V26.3804Z" fill="white"/>
<path d="M151.114 35.9614C148.644 35.9614 146.726 35.4849 145.359 34.5319C144.019 33.579 143.349 32.2011 143.349 30.3982C143.349 28.7241 143.914 27.4492 145.044 26.5736C146.2 25.6721 147.79 25.1313 149.813 24.951L155.41 24.4101V23.3284C155.41 22.0406 155.016 21.1005 154.227 20.5082C153.439 19.9158 152.375 19.6196 151.035 19.6196C149.958 19.6196 148.92 19.7741 147.921 20.0832C146.949 20.3923 146.082 20.74 145.32 21.1263C145.11 20.946 144.913 20.74 144.729 20.5082C144.571 20.2506 144.492 19.9931 144.492 19.7355C144.492 19.0659 144.873 18.5508 145.635 18.1902C146.345 17.8296 147.159 17.5592 148.079 17.3789C149.025 17.1729 150.023 17.0698 151.074 17.0698C153.36 17.0698 155.173 17.5721 156.513 18.5765C157.853 19.581 158.523 21.1649 158.523 23.3284V32.4844C158.523 33.051 158.405 33.4889 158.169 33.7979C157.958 34.0812 157.63 34.3517 157.183 34.6092C156.553 34.944 155.712 35.2531 154.661 35.5364C153.61 35.8197 152.427 35.9614 151.114 35.9614ZM151.114 33.4116C152.217 33.4116 153.124 33.3086 153.833 33.1025C154.569 32.8707 155.094 32.6518 155.41 32.4458V26.844L150.522 27.3462C149.156 27.4492 148.145 27.7454 147.488 28.2348C146.831 28.7241 146.502 29.4324 146.502 30.3596C146.502 31.3125 146.883 32.0594 147.645 32.6003C148.434 33.1412 149.59 33.4116 151.114 33.4116Z" fill="white"/>
<path d="M164.318 25.2214H167.471V30.5528C167.471 31.583 167.773 32.317 168.377 32.7548C168.982 33.1669 169.809 33.373 170.86 33.373C171.307 33.373 171.806 33.2957 172.358 33.1412C172.91 32.9866 173.37 32.8063 173.738 32.6003C173.895 32.7548 174.04 32.948 174.171 33.1798C174.303 33.4116 174.368 33.682 174.368 33.9911C174.368 34.5577 174.027 35.0213 173.344 35.3819C172.66 35.7424 171.714 35.9227 170.506 35.9227C168.666 35.9227 167.169 35.5235 166.013 34.7251C164.883 33.9267 164.318 32.6003 164.318 30.7459V25.2214ZM165.934 20.5082V17.9584H173.935C174.014 18.0614 174.092 18.2288 174.171 18.4606C174.25 18.6924 174.289 18.9371 174.289 19.1947C174.289 19.6067 174.184 19.9287 173.974 20.1605C173.764 20.3923 173.475 20.5082 173.107 20.5082H165.934ZM167.471 26.3804H164.318V12.3952C164.449 12.3437 164.646 12.2922 164.909 12.2407C165.198 12.1634 165.5 12.1248 165.816 12.1248C166.367 12.1248 166.775 12.2407 167.037 12.4725C167.326 12.6786 167.471 13.0263 167.471 13.5156V26.3804Z" fill="white"/>
<path d="M178.667 11.9316C178.667 11.3908 178.864 10.9401 179.258 10.5795C179.652 10.1932 180.138 10 180.717 10C181.321 10 181.807 10.1932 182.175 10.5795C182.543 10.9401 182.727 11.3908 182.727 11.9316C182.727 12.4725 182.543 12.9361 182.175 13.3224C181.807 13.683 181.321 13.8633 180.717 13.8633C180.138 13.8633 179.652 13.683 179.258 13.3224C178.864 12.9361 178.667 12.4725 178.667 11.9316ZM179.14 25.2214H182.293V35.3432C182.162 35.3948 181.965 35.4463 181.702 35.4978C181.439 35.575 181.15 35.6137 180.835 35.6137C180.283 35.6137 179.863 35.5106 179.574 35.3046C179.285 35.0728 179.14 34.7122 179.14 34.2229V25.2214ZM182.293 26.7281H179.14V17.6493C179.271 17.5978 179.468 17.5463 179.731 17.4948C180.02 17.4175 180.322 17.3789 180.638 17.3789C181.189 17.3789 181.597 17.4948 181.86 17.7266C182.149 17.9326 182.293 18.2932 182.293 18.8083V26.7281Z" fill="white"/>
<path d="M205.358 26.4963C205.358 28.4022 204.99 30.0634 204.254 31.4799C203.519 32.8965 202.481 33.9911 201.141 34.7637C199.801 35.5364 198.224 35.9227 196.411 35.9227C194.598 35.9227 193.009 35.5364 191.642 34.7637C190.302 33.9911 189.264 32.8965 188.529 31.4799C187.793 30.0634 187.425 28.4022 187.425 26.4963C187.425 24.5646 187.793 22.9034 188.529 21.5126C189.291 20.0961 190.342 19.0015 191.682 18.2288C193.048 17.4562 194.625 17.0698 196.411 17.0698C198.198 17.0698 199.761 17.4562 201.101 18.2288C202.441 19.0015 203.479 20.0961 204.215 21.5126C204.977 22.9034 205.358 24.5646 205.358 26.4963ZM196.411 19.6196C194.651 19.6196 193.245 20.2377 192.194 21.474C191.169 22.6845 190.657 24.3586 190.657 26.4963C190.657 28.6597 191.156 30.3467 192.155 31.5572C193.179 32.7677 194.598 33.373 196.411 33.373C198.198 33.373 199.591 32.7677 200.589 31.5572C201.614 30.321 202.126 28.634 202.126 26.4963C202.126 24.3586 201.614 22.6845 200.589 21.474C199.591 20.2377 198.198 19.6196 196.411 19.6196Z" fill="white"/>
<path d="M226 23.6374V27.578H222.847V23.792C222.847 22.3497 222.427 21.2937 221.586 20.6241C220.771 19.9544 219.668 19.6196 218.275 19.6196C217.224 19.6196 216.291 19.7484 215.477 20.0059C214.662 20.2635 213.966 20.5597 213.388 20.8945V27.578H210.235V21.049C210.235 20.5082 210.34 20.0703 210.55 19.7355C210.787 19.3749 211.181 19.0272 211.732 18.6924C212.416 18.3061 213.322 17.9455 214.452 17.6107C215.582 17.2501 216.856 17.0698 218.275 17.0698C220.666 17.0698 222.545 17.6107 223.911 18.6924C225.304 19.7484 226 21.3967 226 23.6374ZM210.235 25.4532H213.388V35.3432C213.256 35.3948 213.059 35.4463 212.797 35.4978C212.534 35.575 212.245 35.6137 211.93 35.6137C211.378 35.6137 210.957 35.5106 210.668 35.3046C210.379 35.0728 210.235 34.7122 210.235 34.2229V25.4532ZM222.847 25.4532H226V35.3432C225.869 35.3948 225.658 35.4463 225.369 35.4978C225.107 35.575 224.831 35.6137 224.542 35.6137C223.964 35.6137 223.53 35.5106 223.241 35.3046C222.978 35.0728 222.847 34.7122 222.847 34.2229V25.4532Z" fill="white"/>
</svg>
